<?xml version="1.0" encoding="UTF-8"?>
<svg xmlns:cc="http://creativecommons.org/ns#" xmlns:dc="http://purl.org/dc/elements/1.1/" xmlns:inkscape="http://www.inkscape.org/namespaces/inkscape" xmlns:rdf="http://www.w3.org/1999/02/22-rdf-syntax-ns#" xmlns:sodipodi="http://sodipodi.sourceforge.net/DTD/sodipodi-0.dtd" xmlns:svg="http://www.w3.org/2000/svg" xmlns="http://www.w3.org/2000/svg" xmlns:xlink="http://www.w3.org/1999/xlink" version="1.1" id="Layer_1" x="0px" y="0px" viewBox="0 0 354.3 354.3" style="enable-background:new 0 0 354.3 354.3;" xml:space="preserve">
<style type="text/css">
	.st0{fill:#051C3B;}
</style>
<g transform="translate(0,-698.0315)">
	<path class="st0" d="M176,732.4c-12.7,0-24,8-28.2,20H66v20h9.2c2.1,0,3.2,0.1,3.5,0.3l-43.8,97.8c-0.1,0.1-0.2,0.1-0.4,0.2H18.3   c0,13.7,13.3,26.3,35,33.1c21.7,6.8,48.3,6.8,70,0c21.2-6.7,34.4-19,34.9-32.3l0.1-0.4h0c0-0.1,0-0.3,0-0.4h-16.6l-43.8-97.9   c0.3-0.2,8.9-0.3,20.1-0.3h29.8c3,8.5,9.7,15.2,18.2,18.2v176.8H36v40h280v-40H186V790.6c8.5-3,15.2-9.7,18.2-18.2h34.5   c11.4,0,20,0.2,20.3,0.3l-44.3,99l-3,0h-14c0,13.7,13.3,26.3,35,33.1c21.7,6.8,48.3,6.8,70,0c21.7-6.8,35-19.5,35-33.1h-18.3   l-44.4-99.2l5.3-0.1l3.3-0.1h2.3v-20h-81.8C200,740.4,188.7,732.4,176,732.4z M88.2,776c0.2,0.2,2.5,5.3,6,12.8l36.6,81.8   c-0.1,0-0.5,0.1-0.8,0.1H88.3H46.7c-0.5-0.1-0.7-0.1-0.8-0.2L88.2,776z M267.1,779.3C267.1,779.3,267.1,779.3,267.1,779.3   l41.3,92.3c-0.1,0.1-3.2,0.1-7.3,0.2h-33.3h-37.4c-2.7-0.1-4.2-0.2-4.6-0.3L267.1,779.3z"></path>
</g>
</svg>
