<?xml version="1.0" encoding="utf-8"?>
<!-- Generator: Adobe Illustrator 16.0.0, SVG Export Plug-In . SVG Version: 6.00 Build 0)  -->
<!DOCTYPE svg PUBLIC "-//W3C//DTD SVG 1.1//EN" "http://www.w3.org/Graphics/SVG/1.1/DTD/svg11.dtd">
<svg version="1.1" id="Layer_1" xmlns="http://www.w3.org/2000/svg" xmlns:xlink="http://www.w3.org/1999/xlink" x="0px" y="0px"
	 width="54.155px" height="55.074px" viewBox="0 0 54.155 55.074" enable-background="new 0 0 54.155 55.074" xml:space="preserve">
<g>
	<g>
		<path fill="#614A3C" d="M8.146,39.068c-1.295,1.188-2.581,2.344-3.854,3.459c2.449,2.197,4.969,4.455,7.5,6.76
			c1.216-1.094,2.452-2.238,3.706-3.42c1.679,1.043,3.462,1.906,5.288,2.549c-0.049,1.754-0.068,3.49-0.051,5.203
			c3.165,0.543,6.252,1.041,9.237,1.455c0.053-1.838,0.136-3.691,0.242-5.553c0.771-0.107,1.538-0.264,2.303-0.479
			c0.963-0.271,1.887-0.623,2.776-1.047c0.964,1.51,1.901,3.018,2.806,4.52c2.378-1.961,4.81-4.02,7.289-6.137
			c-0.821-1.473-1.688-2.957-2.594-4.451c1.232-1.5,2.324-3.143,3.241-4.861c1.637,0.352,3.24,0.67,4.801,0.949
			c1.104-3.17,2.225-6.262,3.319-9.24c-1.699-0.305-3.432-0.648-5.19-1.029c0.153-1.738,0.068-3.471-0.3-5.184
			c1.715-0.758,3.432-1.502,5.15-2.23c-1.249-2.562-2.625-5.141-4.106-7.738c-1.75,0.594-3.5,1.219-5.249,1.871
			c-1.213-1.381-2.622-2.643-4.163-3.768c0.736-1.494,1.447-2.943,2.127-4.334c-3.083-1.52-6.143-3.109-9.126-4.73
			c-0.652,1.486-1.341,3.025-2.062,4.605c-1.788-0.504-3.603-0.799-5.412-0.838C25.311,3.599,24.79,1.799,24.264,0
			c-2.88,0.529-5.73,1.177-8.55,1.943c0.397,1.884,0.803,3.765,1.218,5.644c-1.58,0.877-3.036,1.994-4.364,3.291
			C11.205,9.8,9.886,8.732,8.621,7.681c-1.873,2.805-3.821,5.645-5.817,8.463c1.297,0.996,2.649,2.018,4.046,3.059
			c-0.789,1.777-1.383,3.629-1.734,5.502c-1.8,0.217-3.59,0.453-5.369,0.711C-0.269,28.55-0.191,31.626,0,34.636
			c1.885-0.168,3.772-0.326,5.662-0.475C6.243,35.923,7.089,37.56,8.146,39.068z M12.929,31.048
			c-1.887-7.555,3.009-15.785,10.436-17.604c7.453-1.729,15.657,3.141,17.575,10.416c1.823,7.301-3.023,15.518-10.388,17.594
			C23.167,43.435,14.913,38.58,12.929,31.048z"/>
	</g>
	<circle fill="#E45B2C" cx="26.902" cy="27.461" r="10.033"/>
</g>
<g>
</g>
<g>
</g>
<g>
</g>
<g>
</g>
<g>
</g>
<g>
</g>
</svg>
