<?xml version="1.0" encoding="utf-8"?>
<!-- Generator: Adobe Illustrator 14.0.0, SVG Export Plug-In  -->
<!DOCTYPE svg PUBLIC "-//W3C//DTD SVG 1.1//EN" "http://www.w3.org/Graphics/SVG/1.1/DTD/svg11.dtd" [
	<!ENTITY ns_flows "http://ns.adobe.com/Flows/1.0/">
]>
<svg version="1.1"
	 xmlns="http://www.w3.org/2000/svg" xmlns:xlink="http://www.w3.org/1999/xlink" xmlns:a="http://ns.adobe.com/AdobeSVGViewerExtensions/3.0/"
	 x="0px" y="0px" width="59px" height="58px" viewBox="-0.6 -0.6 59 58" enable-background="new -0.6 -0.6 59 58"
	 xml:space="preserve">
<defs>
</defs>
<path fill="#FFFFFF" d="M26.4,25.6c0-7,0.7-13.3,0.7-13.3l-4.3-4c0,0,6.7-2.2,10.9-0.1c1.6,4.1,8.5,3.8,8.5,3.8s5.1,2.7,6.9,7.9
	c-2.5-0.8-10-2.9-10-2.9S31.7,19.2,26.4,25.6z"/>
<ellipse fill="#FFFFFF" cx="40.8" cy="5.6" rx="6.1" ry="4.3"/>
<path fill="#FFFFFF" d="M27.7,30.1c5,4,7.8,7.1,10.9,11.2c0.1,2.3-0.5,5-1.3,8c5.2-1.7,8.8-5.9,8.8-5.9s-1.8-6.8,4.6-8.5
	c1.5-3.9,0.7-9.5-0.2-11.5c-2.2,1.8-3.5,3.8-6.2,6.6C39.7,30.1,27.7,30.1,27.7,30.1z"/>
<circle fill="#FFFFFF" cx="52.7" cy="41.4" r="5.2"/>
<path fill="#FFFFFF" d="M23.5,30.6c-0.7,3.2-0.9,8.2,0.8,12.9c1.8,3.6,7.4,7,8.4,6.9c1-0.1-5.8,1.6-10.1-0.3c-0.9-2-3.3-4.8-7.7-4.1
	c-2.3-2-4.7-4.8-5.9-8.6c2.2,0.7,3.9,1.9,7.2,2C19.1,36.8,23.5,30.6,23.5,30.6z"/>
<ellipse fill="#FFFFFF" cx="16.5" cy="53" rx="4.8" ry="5.1"/>
<path fill="#FFFFFF" d="M22.8,26.8l-6.2-9.7c0.5-4.1,3.7-8.3,3.7-8.3c-6.2,2.2-9,7.1-9,7.1c0.5,5.1-3.5,6.2-3.5,6.2
	c-1.6,5.1-0.3,10.2-0.3,10.2c1.8-4.5,3.7-5.9,3.7-5.9L22.8,26.8z"/>
<ellipse fill="#FFFFFF" cx="4.9" cy="16.7" rx="4.8" ry="4.4"/>
<path fill="#799D42" d="M26.3,24.2c0-7,0.7-13.3,0.7-13.3l-4.3-4c0,0,6.7-2.2,10.9-0.1c1.6,4.1,8.5,3.8,8.5,3.8s5.1,2.7,6.9,7.9
	c-2.5-0.8-10-2.8-10-2.8S31.6,17.8,26.3,24.2z"/>
<ellipse fill="#799D42" cx="40.7" cy="4.3" rx="6.1" ry="4.3"/>
<path fill="#B33F1B" d="M27.5,28.7c5,4,7.8,7.1,10.9,11.2c0.1,2.3-0.5,5-1.3,8c5.2-1.7,8.8-5.9,8.8-5.9s-1.8-6.8,4.6-8.5
	c1.5-3.9,0.7-9.5-0.2-11.5c-2.2,1.8-3.5,3.8-6.2,6.6C39.6,28.7,27.5,28.7,27.5,28.7z"/>
<circle fill="#B33F1B" cx="52.6" cy="40" r="5.2"/>
<path fill="#F16431" d="M23.3,29.3c-0.7,3.2-0.9,8.2,0.8,12.9c1.8,3.6,7.4,7,8.4,6.9c1-0.1-5.8,1.6-10.1-0.3c-0.9-2-3.3-4.8-7.7-4.1
	c-2.3-2-4.7-4.8-5.9-8.6c2.2,0.7,3.9,1.9,7.2,2C19,35.5,23.3,29.3,23.3,29.3z"/>
<ellipse fill="#F16431" cx="16.4" cy="51.6" rx="4.8" ry="5.1"/>
<path fill="#008EC1" d="M22.6,25.4l-6.3-9.7c0.5-4.1,3.7-8.3,3.7-8.3c-6.2,2.2-9,7.1-9,7.1c0.5,5.1-3.5,6.2-3.5,6.2
	C6,25.9,7.2,31,7.2,31c1.8-4.5,3.7-5.9,3.7-5.9L22.6,25.4z"/>
<ellipse fill="#008EC1" cx="4.8" cy="15.3" rx="4.8" ry="4.4"/>
</svg>
