<?xml version="1.0" encoding="utf-8"?>
<!-- Generator: Adobe Illustrator 14.0.0, SVG Export Plug-In  -->
<!DOCTYPE svg PUBLIC "-//W3C//DTD SVG 1.1//EN" "http://www.w3.org/Graphics/SVG/1.1/DTD/svg11.dtd" [
	<!ENTITY ns_flows "http://ns.adobe.com/Flows/1.0/">
]>
<svg version="1.1"
	 xmlns="http://www.w3.org/2000/svg" xmlns:xlink="http://www.w3.org/1999/xlink" xmlns:a="http://ns.adobe.com/AdobeSVGViewerExtensions/3.0/"
	 x="0px" y="0px" width="166px" height="109px" viewBox="-2.9 -3.4 166 109" enable-background="new -2.9 -3.4 166 109"
	 xml:space="preserve">
<defs>
</defs>
<path fill="#60493B" d="M19,6.8c0,0-11.8,0.8-12.7,10.6c-0.9,9.5,5.3,11.4,5.3,11.4L0,72.5l33-7.2L22.8,28.8c0,0,4.9-2.8,5.7-7.6
	C29.2,16.5,28.5,7.4,19,6.8z"/>
<path fill="#EADA96" d="M116.5,36.6c-18.8,20.2-20.8,5.7-20.8,5.7s3.3-1.1,2.8-3.6c-1.4-7.2-12.4-8-12.4-8L85.2,34
	c6,0.4,8.1,3.3,8.1,3.3s-2.2,0.5-1.9,2.9c0,0-0.7-1,0.3-2.3c0.4-0.5,0.9-0.6,0.9-0.6s-2.2-3.7-7.5-0.7l2,2.4c-1.2,1.2-1,3.6-1,3.6
	l2.5-0.1c0.2,1,0.5,1.8,0.5,1.8c7.9,21.8,27.3-3.5,27.3-3.5c0.9-1.2,1.7-2.3,1.7-3.5C118.2,37.4,118.1,35,116.5,36.6z"/>
<path fill="#F26531" d="M86.8,5.4c-11-1.7-19.2,9-22,17.2l-22.2-2.5l0.4-2.9l-16.4-1.1L26,18.4l-2.2-0.3c0,0-5.3,3.7-1.8,9.1
	l4.6,0.6l-0.4,3.1l-4.8-0.3l-4.2,18.3c0.1,0,1.3,0.2,3.2,0.4l0.6-2.5l6.2,0.8L27,50.2c3.4,0.5,7.2,1,10.4,1.4l0.6-4.7l3.2,0.5
	l-0.6,4.6c2.6,0.4,4.4,0.6,4.4,0.6l1.3-19L41,32.8l0.4-3.3L63.3,34c0,0-2,16.4,12.7,19.5c14.7,3.1,19.8-21.3,20.6-26.3
	C97.6,21.5,97.8,7.1,86.8,5.4z M88.2,31.4c-2.1,8.7-6.6,14.3-11.1,13.7c-5.6-0.7-7.4-8.4-5.3-17.1c2.1-8.7,8.3-15.1,12.8-14.6
	C90.7,14.2,90.2,22.7,88.2,31.4z"/>
<path fill="#EADA96" d="M94.8,42.8c0,0,4.1-0.6,3.8-4c-0.5-5.1-8.3-5.7-8.3-5.7l-0.9,3.3c2.5-0.4,4,0.9,4,0.9s-2.2,0.5-1.9,2.9
	L94.8,42.8z"/>
<path fill="#A7B780" d="M110,41.9l3.3,3.4c0,0,7.8-7.5,5.1-9.1C116,34.8,114.3,38.3,110,41.9z"/>
<path fill="#EADA96" d="M141.9,29c0,0-3,7.2-5.1,11.2c0,0-12,0.1-19.3-4.6c0,0-3.3-11.6,4.4-25.4c7.6-13.8,26.6-6.8,23.4,10.6
	c0,0,3.9,0.7,1.6,5.4C144.6,30.8,141.9,29,141.9,29z"/>
<path fill="#F26531" d="M139.6,13.7c0,0-7,3.8-16.3,2.2c-9.3-1.6-6.1-8.9-5.8-10.8c0.3-2-1.5-3.3-2.8-3.4c0,0,14.6-4.5,26.4,1
	c11.8,5.5,4.7,9.1,4.7,9.1s8.7,1.8,1.3,9.9c0,0-3.6-3.9-7.6,3.7c0,0-3.2,0.4-2.6-1c0.6-1.4,2.2-2.6,0.1-4.1
	C135,18.8,136.5,16.6,139.6,13.7z"/>
<path fill="#60493B" d="M128.3,22.1c-0.6-0.1-1.1,0.3-1.2,0.8c-0.1,0.6,0.2,1.1,0.8,1.2s1-0.3,1.1-0.8
	C129,22.8,128.8,22.2,128.3,22.1z"/>
<path fill="#60493B" d="M122.7,20.6c-0.5-0.1-1.1,0.3-1.1,0.7c-0.1,0.6,0.2,1,0.8,1.1c0.6,0.1,0.9-0.3,1-0.7
	C123.3,21.3,123.1,20.7,122.7,20.6z"/>
<path fill="#60493B" d="M118.4,28.1c0,0,4,5.9,13.7,3.5C132,31.6,121.3,37.4,118.4,28.1z"/>
<path fill="#60493B" d="M139.7,68.1c-4.1,0.8-20.9,3.1-32.7-7C106.4,75.1,137.1,76.7,139.7,68.1z"/>
<path fill="#7B9D42" d="M106.8,61.3c11.8,10,27.8,7.9,32.7,6.9c0,0,0,0,0.1,0c1.7-4.7,2.8-21.6-2.2-29.2c0,0-10.1,1.7-19.9-3.5
	C117.5,35.5,109.5,41,106.8,61.3C106.8,61.3,106.8,61.3,106.8,61.3z"/>
<path fill="#60493B" d="M120,38.1c0,0-0.2,3-0.2,3.4l-7.2,10.1l1.5,7.1l6.4-4.5l2.2-12l3.2-2.4C125.9,39.8,123,36.5,120,38.1z"/>
<path fill="#A7B780" d="M128.9,46.9l-2,6.8c0,0,2.6,1.2,6.5,1.2c0,0,1.6-4.6,1.8-6.5C135.2,48.4,133.1,48.5,128.9,46.9z"/>
<path fill="#A7B780" d="M117.5,35.5c0,0,0.3,2.4,0.9,3.5l4.5-1.1c0,0,1.9,3.4,2.9,4.7c0,0,2.3,0.2,8.6-3.3
	C134.4,39.3,125.8,39.8,117.5,35.5z"/>
<path fill="#FFFFFF" d="M133.2,48.1l0.7,0.1c0,0-0.4,1.8-0.4,2.1c0,0.3,0.4,0.7,0.9-2.1C135,45.6,134.7,42.7,133.2,48.1z"/>
<path fill="#EADA96" d="M143,37.9c-6,0.6-7.2,4.6,0.3,3.7c0,0,10-1.6,3.1,6.7c0,0-2-0.7-5-0.1l0.4,2.1c0,0,1.5-0.5,3.2,0.4
	c0,0,1.3,4.2-1.7,9.5c0,0,0.6,0.8,1.7,1.5c0.3-0.7,1.8-4.2,1.9-7.3c0,0,0.1,3.7-1.6,7.5c0.6,0.3,1.2,0.6,2,0.8
	c0.3-0.6,1.4-3.4,1.1-7.8c0,0,0.8,4.5-0.7,7.9c0.7,0.1,1.5,0.2,2.3,0.1c0,0,1.5-3.5,0-10.4C149.9,52.5,162.9,35.9,143,37.9z"/>
<path fill="#A7B780" d="M143.2,42c0,0,0-2.4-0.8-4.3c0,0-6.4,0.3-6.3,2.3C136.1,42.1,139.2,42.3,143.2,42z"/>
<path fill="#E55A2E" d="M106.6,90.3C106,90.4,97,92,95.1,96.4c0,0,9.6,3.3,18.9-1C114.1,95.4,113.2,90,106.6,90.3z"/>
<path fill="#60493B" d="M109.7,66.1c-0.8,0.7-2.8,24.2-2.8,24.2s0.5,4.4,6.3,3.1c0,0-2.2-14.6-1-26.4
	C112.2,66.9,111.8,64.4,109.7,66.1z"/>
<path fill="#E55A2E" d="M150.1,93.5c-2.4-0.1-5.3,0.8-5.7,4.5c0,0,7.2,6.5,15.6,1.8C160,99.7,158.8,94,150.1,93.5z"/>
<path fill="#60493B" d="M151.2,93.5c0,0-0.3,3.5-6.6,3c0,0-4.4-13.6-10.7-24.9c0,0-0.8-1,0.3-1.5c1.1-0.5,1.7-0.2,2.4,0.6
	C137.4,71.6,144,81.3,151.2,93.5z"/>
<path fill="#F7937C" d="M23.3,22c0,0,0-1.6,1.2-2.5l38.2,4.7L23.3,22z"/>
<polygon fill="#F7937C" points="22.3,32.3 18.3,48.2 24.3,34.1 45.5,34.7 "/>
<linearGradient id="SVGID_1_" gradientUnits="userSpaceOnUse" x1="129.8965" y1="-35.8398" x2="111.9059" y2="13.2272" gradientTransform="matrix(1 0 0 -1 4 98.1689)">
	<stop  offset="0.5005" style="stop-color:#D6B982"/>
	<stop  offset="1" style="stop-color:#89714E"/>
	<a:midPointStop  offset="0.5005" style="stop-color:#D6B982"/>
	<a:midPointStop  offset="0.5" style="stop-color:#D6B982"/>
	<a:midPointStop  offset="1" style="stop-color:#89714E"/>
</linearGradient>
<ellipse opacity="0.22" fill="url(#SVGID_1_)" enable-background="new    " cx="121.4" cy="100" rx="27.3" ry="2.2"/>
</svg>
