<?xml version="1.0" encoding="utf-8"?>
<!-- Generator: Adobe Illustrator 16.0.0, SVG Export Plug-In . SVG Version: 6.00 Build 0)  -->
<!DOCTYPE svg PUBLIC "-//W3C//DTD SVG 1.1//EN" "http://www.w3.org/Graphics/SVG/1.1/DTD/svg11.dtd">
<svg version="1.1" id="Layer_1" xmlns="http://www.w3.org/2000/svg" xmlns:xlink="http://www.w3.org/1999/xlink" x="0px" y="0px"
	 width="41.938px" height="44.615px" viewBox="0 0 41.938 44.615" enable-background="new 0 0 41.938 44.615" xml:space="preserve">
<g>
	<path fill="#7C9D41" d="M3.725,27.643C2.469,28.314,1.226,28.963,0,29.582c1.481,2.221,3.005,4.502,4.529,6.822
		c1.175-0.615,2.377-1.264,3.6-1.939c1.108,1.156,2.336,2.195,3.64,3.068c-0.392,1.367-0.757,2.727-1.088,4.076
		c2.376,1.064,4.701,2.078,6.962,3.006c0.411-1.434,0.851-2.873,1.31-4.314c0.627,0.072,1.262,0.104,1.905,0.088
		c0.811-0.018,1.607-0.107,2.392-0.262c0.452,1.381,0.885,2.754,1.293,4.115c2.263-1.061,4.587-2.188,6.962-3.35
		c-0.348-1.324-0.73-2.664-1.14-4.021c1.27-0.928,2.458-1.998,3.525-3.164c1.215,0.607,2.409,1.18,3.58,1.713
		c1.506-2.266,3.009-4.469,4.469-6.588c-1.273-0.582-2.564-1.201-3.869-1.855c0.471-1.334,0.753-2.711,0.81-4.132
		c1.499-0.248,2.998-0.487,4.495-0.714c-0.465-2.264-1.025-4.566-1.666-6.905c-1.494,0.114-2.994,0.253-4.5,0.413
		c-0.675-1.33-1.527-2.605-2.511-3.8c0.88-1.025,1.73-2.02,2.545-2.975c-2.116-1.816-4.199-3.681-6.215-5.555
		c-0.812,1.035-1.664,2.105-2.548,3.202c-1.303-0.757-2.669-1.355-4.082-1.749c-0.041-1.52-0.086-3.038-0.138-4.558
		c-2.369-0.164-4.738-0.229-7.107-0.196c-0.067,1.56-0.128,3.119-0.182,4.679c-1.417,0.37-2.786,0.954-4.09,1.706
		c-0.854-1.122-1.675-2.227-2.456-3.307C8.389,4.911,6.285,6.749,4.15,8.56c0.817,1.045,1.674,2.119,2.561,3.219
		C5.732,13.016,4.894,14.35,4.24,15.75c-1.458-0.192-2.911-0.368-4.36-0.524c-0.645,2.459-1.203,4.892-1.659,7.294
		c1.514,0.248,3.028,0.505,4.543,0.769C2.864,24.789,3.199,26.244,3.725,27.643z M9.099,22.308
		c0.04-6.314,5.545-11.792,11.745-11.725c6.202,0.146,11.665,5.623,11.704,11.725c-0.039,6.102-5.502,11.579-11.704,11.725
		C14.644,34.102,9.139,28.625,9.099,22.308z"/>
	<circle fill="#614A3C" cx="20.87" cy="22.308" r="7.916"/>
</g>
<g>
</g>
<g>
</g>
<g>
</g>
<g>
</g>
<g>
</g>
<g>
</g>
</svg>
