<?xml version="1.0" encoding="utf-8"?>
<!-- Generator: Adobe Illustrator 14.0.0, SVG Export Plug-In  -->
<!DOCTYPE svg PUBLIC "-//W3C//DTD SVG 1.1//EN" "http://www.w3.org/Graphics/SVG/1.1/DTD/svg11.dtd" [
	<!ENTITY ns_flows "http://ns.adobe.com/Flows/1.0/">
]>
<svg version="1.1"
	 xmlns="http://www.w3.org/2000/svg" xmlns:xlink="http://www.w3.org/1999/xlink" xmlns:a="http://ns.adobe.com/AdobeSVGViewerExtensions/3.0/"
	 x="0px" y="0px" width="37px" height="307px" viewBox="-0.4 -3.2 37 307" enable-background="new -0.4 -3.2 37 307"
	 xml:space="preserve">
<defs>
</defs>
<path fill-rule="evenodd" clip-rule="evenodd" fill="#D1C7BD" d="M15.9,138.7h11c0.6,0,1,0.4,1,1v22c0,0.6-0.4,1-1,1h-16
	c-0.6,0-1-0.4-1-1v-17h6V138.7z M6.9,143.7v20c0,1.1,0.9,2,2,2h20c1.1,0,2-0.9,2-2v-26c0-1.1-0.9-2-2-2h-14L6.9,143.7z M12.9,152.7
	v2h6v-2H12.9z M12.9,156.7v2h12v-2H12.9z M12.9,148.7v2h10v-2H12.9z"/>
<path fill-rule="evenodd" clip-rule="evenodd" fill="#D1C7BD" d="M19.7,272.3c0,2.1,1.6,3.5,3.5,3.5c1.9,0,3.5-1.4,3.5-3.5
	s-1.6-3.5-3.5-3.5C21.3,268.8,19.7,270.2,19.7,272.3z M11.7,284.5c0,0.4,0.1,1.3,0.2,1.9l1.7-2.1l1.3-1.6c0.6-0.7,1.4-1.2,1.7-1
	s0.6,0.6,0.5,1l-5.1,16.8c-0.5,1.7,0.4,3.6,2,4.2c0.4,0.1,0.8,0.2,1.1,0.2l0.1,0c3.9,0,6.5-2.8,8.8-6.3c0-0.4-0.1-1.3-0.2-1.9
	l-1.7,2.1l-1.3,1.6c-0.6,0.7-1.4,1.2-1.8,1c-0.3-0.1-0.5-0.5-0.5-0.9l5.1-16.9c0.5-1.7-0.4-3.6-2-4.2c-0.4-0.1-1.2-0.2-1.2-0.2
	C16.7,278.2,14,281,11.7,284.5z"/>
<path fill="#D1C7BD" d="M16.6,37.1c-5.1-7.4-9-14.7-9-14.7L0,21.2c0,0,5.5-7.3,11.6-8.1c4.7,3.2,11.9-2.2,11.9-2.2s7.4-0.9,13.1,3.4
	c-3.3,0.9-12.8,4.2-12.8,4.2S17.5,26.4,16.6,37.1z"/>
<path fill="#938A82" d="M14.2,1.8c3.6-2.5,8-2.4,9.7,0.1c1.7,2.5,0.2,6.6-3.5,9.1c-3.6,2.5-8,2.4-9.7-0.1C9.1,8.4,10.6,4.3,14.2,1.8
	z"/>
</svg>
