<?xml version="1.0" encoding="utf-8"?>
<!-- Generator: Adobe Illustrator 16.0.0, SVG Export Plug-In . SVG Version: 6.00 Build 0)  -->
<!DOCTYPE svg PUBLIC "-//W3C//DTD SVG 1.1//EN" "http://www.w3.org/Graphics/SVG/1.1/DTD/svg11.dtd">
<svg version="1.1" id="Layer_1" xmlns="http://www.w3.org/2000/svg" xmlns:xlink="http://www.w3.org/1999/xlink" x="0px" y="0px"
	 width="45.697px" height="45.289px" viewBox="0 0 45.697 45.289" enable-background="new 0 0 45.697 45.289" xml:space="preserve">
<path fill="#E45B2C" d="M5.977,23.033C3.974,23.824,1.979,24.585,0,25.3c0.363,1.197,0.749,2.404,1.154,3.621
	c2.117-0.096,4.238-0.221,6.362-0.371c0.834,1.705,1.969,3.312,3.322,4.74c-0.893,1.906-1.726,3.781-2.476,5.613
	c1.104,0.854,2.195,1.705,3.271,2.553c1.253-1.445,2.584-2.945,3.971-4.482c0.784,0.424,1.6,0.787,2.445,1.08
	c0.9,0.309,1.798,0.523,2.69,0.65c0.499,2.199,0.985,4.395,1.445,6.584c1.186-0.121,2.375-0.266,3.568-0.436
	c0.193-2.174,0.388-4.348,0.579-6.518c1.776-0.486,3.496-1.309,5.098-2.385c1.615,1.191,3.181,2.32,4.68,3.369
	c0.987-0.994,1.986-1.979,2.993-2.949c-1.01-1.424-2.088-2.914-3.215-4.457c1.253-1.514,2.287-3.197,2.984-5.016
	c2.107-0.164,4.217-0.336,6.325-0.514c0.189-1.162,0.355-2.316,0.498-3.465c-1.961-0.416-3.926-0.861-5.893-1.33
	c-0.062-1.92-0.558-3.804-1.406-5.608c1.422-1.2,2.808-2.345,4.142-3.415c-0.826-1.064-1.656-2.147-2.485-3.248
	c-1.594,0.568-3.223,1.202-4.88,1.889c-1.434-1.585-3.127-2.994-5.001-4.081c0.151-1.914,0.276-3.821,0.367-5.721
	C29.356,0.92,28.185,0.451,27.025,0c-0.635,1.704-1.316,3.431-2.033,5.173c-2.009-0.363-3.99-0.257-5.904,0.264
	c-0.962-1.687-1.877-3.358-2.729-5.004c-1.131,0.592-2.28,1.2-3.443,1.82c0.317,1.854,0.688,3.723,1.1,5.603
	c-1.694,1.179-3.252,2.668-4.549,4.377c-1.901-0.518-3.782-0.993-5.639-1.413c-0.69,1.182-1.373,2.352-2.044,3.507
	c1.604,0.966,3.25,1.992,4.921,3.062C6.069,19.289,5.836,21.183,5.977,23.033z M16.849,20.003c1.096-3.345,4.645-5.223,7.946-4.114
	c3.31,1.117,5.216,4.645,4.144,7.926c-1.08,3.289-4.633,5.215-7.948,4.16C17.665,26.916,15.762,23.337,16.849,20.003z"/>
<g>
</g>
<g>
</g>
<g>
</g>
<g>
</g>
<g>
</g>
<g>
</g>
</svg>
